<svg width="17" height="19" viewBox="0 0 17 19" fill="none" xmlns="http://www.w3.org/2000/svg">
<g clip-path="url(#clip0_1_368)">
<path d="M8.5 4.98267C6.125 4.98267 4.23242 6.91236 4.23242 9.25025C4.23242 11.6252 6.125 13.5178 8.5 13.5178C10.8379 13.5178 12.7676 11.6252 12.7676 9.25025C12.7676 6.91236 10.8379 4.98267 8.5 4.98267ZM8.5 12.0334C6.97852 12.0334 5.7168 10.8088 5.7168 9.25025C5.7168 7.72875 6.94141 6.50416 8.5 6.50416C10.0215 6.50416 11.2461 7.72875 11.2461 9.25025C11.2461 10.8088 10.0215 12.0334 8.5 12.0334ZM13.918 4.83423C13.918 4.27759 13.4727 3.83227 12.916 3.83227C12.3594 3.83227 11.9141 4.27759 11.9141 4.83423C11.9141 5.39087 12.3594 5.83618 12.916 5.83618C13.4727 5.83618 13.918 5.39087 13.918 4.83423ZM16.7383 5.83618C16.6641 4.50025 16.3672 3.31275 15.4023 2.34791C14.4375 1.38306 13.25 1.08618 11.9141 1.01196C10.541 0.937744 6.42188 0.937744 5.04883 1.01196C3.71289 1.08618 2.5625 1.38306 1.56055 2.34791C0.595703 3.31275 0.298828 4.50025 0.224609 5.83618C0.150391 7.20922 0.150391 11.3283 0.224609 12.7014C0.298828 14.0373 0.595703 15.1877 1.56055 16.1897C2.5625 17.1545 3.71289 17.4514 5.04883 17.5256C6.42188 17.5998 10.541 17.5998 11.9141 17.5256C13.25 17.4514 14.4375 17.1545 15.4023 16.1897C16.3672 15.1877 16.6641 14.0373 16.7383 12.7014C16.8125 11.3283 16.8125 7.20922 16.7383 5.83618ZM14.957 14.1487C14.6973 14.8908 14.1035 15.4475 13.3984 15.7444C12.2852 16.1897 9.6875 16.0783 8.5 16.0783C7.27539 16.0783 4.67773 16.1897 3.60156 15.7444C2.85938 15.4475 2.30273 14.8908 2.00586 14.1487C1.56055 13.0725 1.67188 10.4748 1.67188 9.25025C1.67188 8.06275 1.56055 5.46509 2.00586 4.35181C2.30273 3.64673 2.85938 3.09009 3.60156 2.79322C4.67773 2.34791 7.27539 2.45923 8.5 2.45923C9.6875 2.45923 12.2852 2.34791 13.3984 2.79322C14.1035 3.05298 14.6602 3.64673 14.957 4.35181C15.4023 5.46509 15.291 8.06275 15.291 9.25025C15.291 10.4748 15.4023 13.0725 14.957 14.1487Z" fill="white"/>
</g>
<defs>
<clipPath id="clip0_1_368">
<rect width="17" height="18" fill="white" transform="translate(0 0.203125)"/>
</clipPath>
</defs>
</svg>
